<?xml version="1.0" encoding="utf-8"?>
<!-- Generator: Adobe Illustrator 17.0.0, SVG Export Plug-In . SVG Version: 6.00 Build 0)  -->
<!DOCTYPE svg PUBLIC "-//W3C//DTD SVG 1.1//EN" "http://www.w3.org/Graphics/SVG/1.1/DTD/svg11.dtd">
<svg version="1.1" id="Layer_1" xmlns="http://www.w3.org/2000/svg" xmlns:xlink="http://www.w3.org/1999/xlink" x="0px" y="0px"
	 width="2199px" height="410px" viewBox="0 0 2199 410" enable-background="new 0 0 2199 410" xml:space="preserve">
<g>
	<path fill="#FFFFFF" d="M297.482,353.298h-156.25c-26.044,0-39.063-13.019-39.063-39.063V177.516
		c0-26.041,13.019-39.063,39.063-39.063H258.42l-19.531,58.594h-78.125v97.656h117.188V60.329h58.594v253.907
		C336.545,340.279,323.522,353.298,297.482,353.298z"/>
	<path fill="#FFFFFF" d="M375.607,353.298V99.391c0-26.041,13.019-39.063,39.063-39.063h58.594l-19.531,58.594h-19.531v19.531
		h19.531v58.594h-19.531v156.25H375.607z"/>
	<path fill="#FFFFFF" d="M727.17,177.516v58.594c0,26.044-13.022,39.063-39.063,39.063H570.92v-58.594h97.656v-19.531H551.388
		v97.656h136.523l-19.141,58.594H531.857c-26.044,0-39.063-13.019-39.063-39.063V177.516c0-26.041,13.019-39.063,39.063-39.063
		h156.25C714.147,138.454,727.17,151.476,727.17,177.516z"/>
	<path fill="#FFFFFF" d="M824.826,216.579h32.422l25.977-78.125h58.594l-26.172,78.516c11.196,1.044,20.474,4.818,27.832,11.328
		c7.354,6.513,13.379,15.625,18.066,27.344l39.063,97.656h-58.594l-33.398-78.125h-83.789v78.125h-58.594V60.329h58.594V216.579z"/>
	<path fill="#FFFFFF" d="M1078.732,99.391v39.063h39.063l-19.531,58.594h-19.531v97.656h39.063v58.594h-58.594
		c-26.044,0-39.063-13.019-39.063-39.063V99.391H1078.732z"/>
	<path fill="#FFFFFF" d="M1488.888,353.298h-156.25c-26.044,0-39.063-13.019-39.063-39.063V60.329h58.594v234.375h136.719V353.298z"
		/>
	<path fill="#FFFFFF" d="M1527.951,353.298V99.196c0-26.041,13.019-39.063,39.063-39.063h156.25
		c26.041,0,39.063,13.022,39.063,39.063v254.102h-58.594v-78.32h-117.188v78.32H1527.951z M1703.732,118.727h-117.188v97.657
		h117.188V118.727z"/>
	<path fill="#FFFFFF" d="M1801.388,353.298V99.196c0-26.041,13.01-39.063,39.029-39.063h156.316
		c26.02,0,39.029,13.022,39.029,39.063v254.102h-58.398l-0.195-234.571h-117.188v234.571H1801.388z"/>
</g>
<polyline fill="none" stroke="#FFFFFF" stroke-width="7" stroke-miterlimit="10" points="2083.998,360.5 121.692,360.5 
	79.998,321.974 79.998,110.999 "/>
<circle fill="none" stroke="#FFFFFF" stroke-width="7" stroke-miterlimit="10" cx="79.998" cy="88.5" r="22.499"/>
<circle fill="none" stroke="#FFFFFF" stroke-width="7" stroke-miterlimit="10" cx="2122.998" cy="360.5" r="39"/>
<polyline fill="none" stroke="#FFFFFF" stroke-width="7" stroke-miterlimit="10" points="376.497,372.5 1124.497,372.5 
	1157.497,339.5 1157.497,307.584 "/>
<g>
	<path fill="#FFFFFF" d="M1157.497,261.5c11.579,0,21,9.421,21,21s-9.421,21-21,21s-21-9.421-21-21S1145.917,261.5,1157.497,261.5
		 M1157.497,247.5c-19.33,0-35,15.67-35,35s15.67,35,35,35s35-15.67,35-35S1176.827,247.5,1157.497,247.5L1157.497,247.5z"/>
</g>
<polyline fill="none" stroke="#FFFFFF" stroke-width="7" stroke-miterlimit="10" points="1157.497,339.5 1240.497,339.5 
	1240.497,120.5 "/>
<circle fill="none" stroke="#FFFFFF" stroke-width="7" stroke-miterlimit="10" cx="1240.497" cy="88.5" r="32"/>
<polyline fill="none" stroke="#FFFFFF" stroke-width="7" stroke-miterlimit="10" points="1481.34,250.243 1516.997,282.803 
	1516.997,342.677 1474.497,382.75 376.497,382.75 356.372,363.774 356.372,52.5 "/>
<circle fill="none" stroke="#FFFFFF" stroke-width="9" stroke-miterlimit="10" cx="1462.747" cy="222.5" r="32.875"/>
<line fill="none" stroke="#FFFFFF" stroke-width="7" stroke-miterlimit="10" x1="1462.747" y1="189.625" x2="1462.747" y2="143.874"/>
<circle fill="none" stroke="#FFFFFF" stroke-width="9" stroke-miterlimit="10" cx="1462.747" cy="110.999" r="32.875"/>
<g>
	<path fill="#FFFFFF" d="M356.372,15.5c9.374,0,17,7.626,17,17s-7.626,17-17,17s-17-7.626-17-17S346.998,15.5,356.372,15.5
		 M356.372,8.5c-13.255,0-24,10.745-24,24s10.745,24,24,24s24-10.745,24-24S369.627,8.5,356.372,8.5L356.372,8.5z"/>
</g>
<polyline fill="none" stroke="#FFFFFF" stroke-width="7" stroke-miterlimit="10" points="376.497,382.75 376.497,362 363.497,362 
	373.247,376.5 365.497,368.75 371.497,366.5 372.747,367.75 372.747,370.25 "/>
</svg>
